<svg width="120" height="160" viewBox="0 0 120 160" xmlns="http://www.w3.org/2000/svg">
  <defs>
    <linearGradient id="kyrusFlameGradient" x1="50%" y1="100%" x2="50%" y2="0%">
      <stop offset="0%" stop-color="#0A84FF" />
      <stop offset="55%" stop-color="#2FA6FF" />
      <stop offset="100%" stop-color="#7FE0FF" />
    </linearGradient>
    <filter id="kyrusFlameGlow" x="-50%" y="-50%" width="200%" height="200%">
      <feGaussianBlur stdDeviation="4" result="blur" />
      <feMerge>
        <feMergeNode in="blur" />
        <feMergeNode in="SourceGraphic" />
      </feMerge>
    </filter>
  </defs>
  <g filter="url(#kyrusFlameGlow)">
    <path
      d="M60 6C44 26 32 40 30 60c-2 18 8 32 26 34-8-10-8-20-2-28 2 12 10 18 20 22 10-14 8-26-2-38 8 4 14 10 16 20 10-12 6-28-8-42 4 8 2 16-4 22 0-20-8-38-16-44z"
      fill="url(#kyrusFlameGradient)"
    />
  </g>
</svg>
